<svg enable-background="new 0 0 512.002 512.002" viewBox="0 0 512.002 512.002" xmlns="http://www.w3.org/2000/svg"><path d="m393.717 134.469c4.667 2.526 9.258-3.503 5.511-7.261-.077-.076-.153-.154-.229-.231-85.085-85.085-223.036-85.085-308.122 0-18.556 18.556-33.041 39.634-43.5 62.124l-32.851-13.195c-3.432-1.379-7.009 1.646-6.218 5.259l26.286 120.153c.704 3.218 4.459 4.679 7.153 2.782l99.121-69.781c2.988-2.104 2.455-6.681-.935-8.042l-35.508-14.261c8.743-14.2 19.259-27.618 31.566-39.924 69.791-69.794 175.148-82.329 257.726-37.623z" fill="#fc3f49"/><path d="m139.931 226.278-35.508-14.262c8.743-14.2 19.259-27.618 31.566-39.924 38.924-38.924 88.911-60.03 139.838-63.338-60.387-3.922-122.095 17.184-168.249 63.338-9.981 9.981-21.025 23.714-29.507 36.123-3.007 4.399-1.458 10.437 3.29 12.857l18.995 9.682c4.439 2.262 4.883 8.43.815 11.306l-68.889 48.702 2.31 10.557c.704 3.218 4.459 4.679 7.153 2.782l99.121-69.781c2.987-2.103 2.455-6.681-.935-8.042z" fill="#f4063f"/><path d="m503.697 330.837-26.285-120.153c-.704-3.218-4.459-4.679-7.153-2.782l-99.121 69.781c-2.988 2.103-2.455 6.681.935 8.042l35.507 14.262c-8.743 14.2-19.259 27.618-31.566 39.924-69.792 69.792-175.15 82.328-257.728 37.623-4.667-2.526-9.258 3.503-5.511 7.261.076.076.153.153.229.231 85.086 85.086 223.036 85.086 308.122 0 18.556-18.556 33.041-39.634 43.5-62.124l32.851 13.195c3.435 1.379 7.01-1.646 6.22-5.26z" fill="#84c9fe"/><path d="m503.697 330.837-26.285-120.153c-.704-3.218-4.459-4.679-7.153-2.782l-14.901 10.49 16.794 75.582c.693 3.119-2.285 5.798-5.313 4.782l-7.608-2.553c-2.961-.993-6.195.4-7.507 3.234l-10.862 23.464c-10.46 22.489-24.944 43.568-43.5 62.124-39.52 39.52-90.444 60.67-142.178 63.48 59.651 3.239 120.378-17.913 165.945-63.48 18.556-18.556 33.041-39.634 43.5-62.124l32.851 13.195c3.432 1.38 7.007-1.645 6.217-5.259z" fill="#70b9e5"/><g fill="#232323"><path d="m150.93 229.074c-.542-4.666-3.586-8.651-7.945-10.402l-26.27-10.552c7.37-10.802 15.776-20.942 25.068-30.235 65.123-65.124 167.118-80.014 248.031-36.21 5.656 3.064 12.553 1.543 16.403-3.61 3.823-5.121 3.324-12.121-1.157-16.613l-.269-.271c-42.699-42.699-99.471-66.215-159.857-66.215-60.385 0-117.157 23.515-159.856 66.215-16.954 16.954-30.97 36.258-41.736 57.468l-25.765-10.349c-4.411-1.772-9.409-.966-13.041 2.106s-5.255 7.865-4.239 12.511l14.031 64.134c.968 4.421 5.331 7.225 9.758 6.255 4.422-.967 7.222-5.336 6.256-9.758l-12.583-57.51 26.559 10.667c4.043 1.626 8.649-.199 10.487-4.148 10.339-22.23 24.425-42.344 41.866-59.784 39.603-39.604 92.258-61.414 148.265-61.414 47.914 0 93.369 15.959 130.303 45.367-36.552-14.783-77.03-19.924-116.303-14.5-49.09 6.781-93.608 28.936-128.743 64.071-12.508 12.51-23.527 26.446-32.749 41.422-1.266 2.057-1.562 4.569-.804 6.863.756 2.295 2.487 4.138 4.728 5.039l29.379 11.8-89.304 62.87-3.536-16.167c-.968-4.42-5.327-7.222-9.758-6.255-4.422.967-7.222 5.336-6.256 9.758l4.692 21.444c.919 4.199 3.858 7.637 7.865 9.195 1.507.587 3.08.874 4.646.874 2.598 0 5.171-.794 7.364-2.337l99.121-69.781c3.842-2.705 5.891-7.282 5.349-11.948z"/><path d="m511.704 329.086-26.287-120.153c-.919-4.199-3.858-7.636-7.864-9.195s-8.496-1.013-12.011 1.462l-99.12 69.781c-3.841 2.703-5.891 7.28-5.349 11.946s3.585 8.652 7.945 10.404l26.271 10.552c-7.37 10.802-15.776 20.941-25.069 30.234-65.124 65.124-167.116 80.015-248.03 36.211-5.655-3.063-12.553-1.544-16.402 3.608-3.826 5.119-3.326 12.121 1.214 16.676l.209.21c42.537 42.535 99.089 66.051 159.242 66.214h.628c59.891-.002 116.306-23.171 158.902-65.279 3.219-3.182 3.25-8.371.068-11.589-3.184-3.219-8.374-3.249-11.589-.067-75.915 75.046-195.718 80.06-277.587 15.223 36.524 14.751 76.961 19.874 116.195 14.456 49.09-6.781 93.608-28.936 128.743-64.071 12.51-12.511 23.529-26.447 32.749-41.422 1.266-2.058 1.561-4.569.804-6.863-.756-2.295-2.487-4.138-4.728-5.039l-29.379-11.8 89.304-62.871 23.682 108.252-26.558-10.667c-4.042-1.625-8.649.199-10.487 4.148-5.799 12.467-12.862 24.405-20.995 35.485-2.678 3.649-1.892 8.778 1.757 11.456 3.649 2.679 8.777 1.893 11.455-1.757 7.238-9.861 13.692-20.354 19.241-31.277l25.768 10.349c4.411 1.772 9.409.966 13.041-2.106 3.629-3.072 5.253-7.866 4.237-12.511z"/></g></svg>